<svg width="30" height="30" viewBox="0 0 30 30" fill="none" xmlns="http://www.w3.org/2000/svg">
<g clip-path="url(#clip0)">
<path d="M15 3.04166C20.1269 3.04166 23.61 4.71105 25.3526 8.00344C25.4663 8.21836 25.7328 8.30039 25.9478 8.18666C26.1627 8.07287 26.2448 7.80644 26.131 7.59146C24.2237 3.98812 20.4788 2.16105 15 2.16105C10.1908 2.16105 6.70234 3.57996 4.6314 6.37834C3.05751 8.505 2.32404 11.4743 2.51013 14.9653C2.64941 17.5781 3.24191 19.5417 3.26704 19.624C3.26933 19.6314 3.27179 19.6388 3.27449 19.6462L3.89476 21.347C3.89493 21.3474 3.89505 21.3478 3.89517 21.3482L6.66191 28.9346L6.66261 28.9366L6.70843 29.0622C5.47152 28.8422 4.43095 28.0012 3.96226 26.796L3.02792 24.3935C2.68263 23.5054 2.58566 22.5397 2.74749 21.6008C2.76003 21.528 2.75406 21.4532 2.73015 21.3834C2.72154 21.3583 1.86835 18.8384 1.57597 15.5951C1.40499 13.6978 1.4579 11.9331 1.73335 10.3501C2.07396 8.39203 2.75792 6.70933 3.76626 5.34879C3.91111 5.15338 3.87009 4.87769 3.67468 4.73285C3.47915 4.58801 3.20341 4.62908 3.05874 4.82443C1.96908 6.29467 1.23167 8.1007 0.866927 10.1923C0.577942 11.8496 0.520989 13.6898 0.697825 15.6618C0.967356 18.6679 1.69093 21.0343 1.86161 21.5617C1.69849 22.6233 1.81738 23.7103 2.20708 24.7126L3.14142 27.1151C3.47324 27.9684 4.04816 28.6927 4.80384 29.2097C5.55947 29.7266 6.44282 29.9999 7.35847 29.9999C7.65484 30.0081 7.88148 29.6843 7.77214 29.4087L7.74847 29.3439L10.1791 29.7356C10.2529 29.7481 10.3295 29.7393 10.4 29.7146L12.1296 29.0838C12.6807 28.8829 13.1204 28.4794 13.3679 27.9477C13.6154 27.416 13.641 26.8198 13.4401 26.2689L11.9143 22.0852C11.831 21.8567 11.5783 21.7388 11.3498 21.8224C11.1214 21.9057 11.0037 22.1584 11.087 22.3869L12.6128 26.5706C12.7332 26.9006 12.7178 27.2576 12.5696 27.576C12.4213 27.8944 12.158 28.1361 11.828 28.2564L10.512 28.7364L6.96894 19.0214L8.28495 18.5415C8.96628 18.2933 9.72249 18.6451 9.97087 19.3263L10.4815 20.7265C10.7022 21.269 11.4897 20.9766 11.3088 20.4247L10.7982 19.0246C10.3834 17.8873 9.12062 17.2993 7.98325 17.7142L6.25872 18.3431C6.18648 18.3689 6.12126 18.4135 6.07093 18.4712L4.46323 20.3357L4.10617 19.3566C4.06023 19.2013 3.51431 17.3125 3.38827 14.8961C3.26909 12.6118 3.51115 9.37019 5.34126 6.89935C7.23736 4.33963 10.487 3.04166 15 3.04166ZM6.24788 19.6145L9.57841 28.7468L7.40288 28.3962L4.80894 21.2834L6.24788 19.6145Z" fill="#F2F2F2"/>
<path d="M29.1559 10.3271C28.8111 8.24789 28.1021 6.44619 27.0485 4.97191C24.6909 1.67279 20.6373 0 15.0003 0H14.9996C10.3201 0 6.71417 1.1601 4.28218 3.44807C3.8712 3.8625 4.44782 4.47404 4.88552 4.08943C7.14882 1.9602 10.5517 0.880605 15.0003 0.880605C20.3352 0.880605 24.1472 2.42859 26.3303 5.48156C28.5476 8.58234 28.6895 12.727 28.4181 15.658C28.1212 18.8644 27.2782 21.3587 27.2697 21.3836C27.2458 21.4534 27.2399 21.5281 27.2524 21.6008C27.4142 22.5397 27.3173 23.5054 26.972 24.3934L26.0376 26.796C25.5689 28.0011 24.5284 28.8422 23.2915 29.0621L23.3373 28.9365C23.3375 28.9359 23.3377 28.9352 23.338 28.9346L26.1047 21.3481C26.1048 21.3477 26.105 21.3473 26.1051 21.3469L26.7254 19.6461C26.7281 19.6388 26.7306 19.6314 26.7328 19.6239C26.8012 19.4003 28.3892 14.092 26.8618 9.33803C26.7873 9.10652 26.5389 8.97908 26.3079 9.0535C26.0763 9.12791 25.949 9.37588 26.0233 9.60738C27.4347 14 25.9703 19.0968 25.8937 19.3565L25.5366 20.3356L23.9289 18.471C23.8785 18.4133 23.8131 18.3686 23.7407 18.3428L22.0166 17.7141C21.4656 17.5131 20.8694 17.5388 20.3377 17.7863C19.8061 18.0338 19.4026 18.4735 19.2017 19.0245L16.5598 26.2686C16.3588 26.8196 16.3845 27.4158 16.632 27.9475C16.8795 28.4791 17.3192 28.8826 17.8702 29.0835L19.5999 29.7144C19.6704 29.739 19.747 29.7479 19.8208 29.7354L22.2514 29.3436L22.2277 29.4085C22.1184 29.6841 22.3451 30.008 22.6414 29.9996C23.557 29.9996 24.4404 29.7264 25.196 29.2095C25.9517 28.6925 26.5266 27.9683 26.8585 27.1149L27.7928 24.7123C28.1825 23.7101 28.3013 22.6231 28.1383 21.5615C28.3074 21.0399 29.0176 18.7207 29.2939 15.7505C29.4756 13.7989 29.4291 11.9742 29.1559 10.3271ZM17.4304 27.576C17.2822 27.2576 17.2668 26.9005 17.3871 26.5706L20.0291 19.3264C20.1494 18.9964 20.3911 18.7331 20.7095 18.5848C21.0279 18.4366 21.3849 18.4212 21.7149 18.5415L23.031 19.0215L19.488 28.7364L18.1719 28.2565C17.842 28.1361 17.5787 27.8944 17.4304 27.576ZM20.4216 28.7468L23.7521 19.6145L25.1911 21.2834L22.5971 28.3962L20.4216 28.7468Z" fill="#F2F2F2"/>
</g>
<defs>
<clipPath id="clip0">
<rect width="30" height="30" fill="white"/>
</clipPath>
</defs>
</svg>
