<svg width="30" height="30" viewBox="0 0 30 30" fill="none" xmlns="http://www.w3.org/2000/svg">
<g clip-path="url(#clip0)">
<path d="M18.1962 15C20.2636 15 21.9462 16.6825 21.9462 18.75C21.9462 20.8175 20.2636 22.5 18.1962 22.5C16.1287 22.5 14.4462 20.8175 14.4462 18.75C14.4462 16.6825 16.1286 15 18.1962 15ZM18.1962 21.25C19.5749 21.25 20.6962 20.1288 20.6962 18.75C20.6962 17.3712 19.5749 16.25 18.1962 16.25C16.8174 16.25 15.6962 17.3712 15.6962 18.75C15.6962 20.1288 16.8174 21.25 18.1962 21.25Z" fill="#F2F2F2"/>
<path d="M7.67157 21.0513L9.64155 19.5075C9.61782 19.2588 9.60282 19.005 9.60282 18.7512C9.60282 18.4937 9.61782 18.2375 9.64284 17.98L7.65411 16.42C7.21413 16.0475 7.10784 15.425 7.39536 14.9462L9.52536 11.2649C9.81534 10.7837 10.4054 10.5762 10.9478 10.7787L13.2641 11.7099C13.6804 11.4124 14.1141 11.1599 14.5766 10.9424L14.9279 8.44863C15.0303 7.90875 15.5216 7.5 16.0728 7.5H20.3228C20.8778 7.5 21.3703 7.91748 21.474 8.49252L21.8203 10.96C22.2865 11.1813 22.7252 11.4375 23.1315 11.725L25.4615 10.7875C25.9865 10.5913 26.579 10.7962 26.874 11.2875L28.9928 14.9538C29.2853 15.44 29.1791 16.0638 28.7216 16.45L26.7516 17.9938C26.7753 18.2425 26.7903 18.4963 26.7903 18.7501C26.7903 19.0076 26.7753 19.2638 26.7503 19.5213L28.7403 21.0801C29.1803 21.4526 29.2866 22.0751 28.9991 22.5538L26.8691 26.2351C26.5791 26.7176 25.989 26.9239 25.4466 26.7214L23.1303 25.7902C22.7141 26.0876 22.2803 26.3402 21.8178 26.5577L21.4665 29.0514C21.3641 29.5914 20.8728 30.0002 20.3216 30.0002H16.0716C15.5166 30.0002 15.0241 29.5827 14.9203 29.0077L14.5741 26.5402C14.1079 26.3189 13.6691 26.0627 13.2628 25.7752L10.9328 26.7127C10.4066 26.9102 9.81411 26.7039 9.52032 26.2127L7.40034 22.5477C7.10784 22.0612 7.21407 21.4375 7.67157 21.0513ZM10.5603 25.5138L13.1216 24.4837C13.3278 24.3987 13.5628 24.4338 13.7391 24.57C14.2278 24.9513 14.7841 25.2762 15.3916 25.5363C15.5916 25.6225 15.7341 25.8075 15.7641 26.0238L16.0716 28.75H20.2478L20.6278 26.0388C20.6591 25.8213 20.8016 25.635 21.0053 25.55C21.6041 25.3 22.1428 24.9838 22.6541 24.5863C22.8291 24.4501 23.0654 24.4163 23.2716 24.5L25.8329 25.5313L27.8792 21.995L25.7042 20.29C25.5304 20.1538 25.4417 19.9363 25.4691 19.7175C25.5116 19.395 25.5404 19.0725 25.5404 18.75C25.5404 18.4287 25.5116 18.1088 25.4704 17.8013C25.4416 17.5825 25.5291 17.3625 25.7041 17.2263L27.8791 15.5212L25.8328 11.985L23.2716 13.015C23.0678 13.0988 22.8303 13.065 22.6541 12.9288C22.1653 12.5475 21.609 12.2225 21.0015 11.9625C20.8016 11.8763 20.6603 11.6925 20.6291 11.4762L20.3228 8.74998H16.1453L15.7653 11.4612C15.7341 11.6787 15.5916 11.865 15.3878 11.95C14.789 12.2 14.2503 12.5162 13.739 12.9137C13.5615 13.0512 13.3253 13.085 13.1215 13L10.5602 11.9675L8.51397 15.5037L10.689 17.2088C10.8627 17.345 10.9515 17.5625 10.924 17.7813C10.8815 18.1038 10.8527 18.4263 10.8527 18.7488C10.8527 19.07 10.8815 19.39 10.9228 19.6975C10.9515 19.9162 10.864 20.1363 10.689 20.2725L8.51403 21.9775L10.5603 25.5138Z" fill="#F2F2F2"/>
<path d="M6.94639 3.75C8.32516 3.75 9.44641 4.87125 9.44641 6.25002C9.44641 7.62879 8.32516 8.75004 6.94639 8.75004C5.56762 8.75004 4.44637 7.62879 4.44637 6.25002C4.44637 4.87125 5.56762 3.75 6.94639 3.75ZM6.94639 7.5C7.63516 7.5 8.19637 6.93873 8.19637 6.25002C8.19637 5.56125 7.6351 5.00004 6.94639 5.00004C6.25768 5.00004 5.69641 5.56131 5.69641 6.25002C5.69635 6.93873 6.25762 7.5 6.94639 7.5Z" fill="#F2F2F2"/>
<path d="M1.15397 7.2675C1.16399 7.25877 1.17524 7.24998 1.1852 7.24125L2.11397 6.52125C2.10647 6.43248 2.10272 6.34248 2.10272 6.25002C2.10272 6.15627 2.10524 6.06504 2.11022 5.97252L1.16399 5.23002C0.841489 4.9425 0.758989 4.48002 0.971509 4.09125L2.08901 2.15877C2.29778 1.77504 2.75903 1.60002 3.22028 1.755L4.29776 2.18877C4.45403 2.085 4.61024 1.99377 4.76903 1.91502L4.92905 0.81C4.96521 0.35625 5.35773 0 5.8215 0H8.0715C8.51148 0 8.8965 0.32625 8.97273 0.77373L9.13773 1.92498C9.30273 2.00871 9.459 2.09748 9.60525 2.19246L10.7052 1.74996C11.1128 1.60248 11.559 1.75494 11.809 2.14746L12.9402 4.10625C13.1565 4.50123 13.0652 4.9725 12.7103 5.2575L11.784 5.98248C11.7878 6.06996 11.7903 6.15873 11.7903 6.24996C11.7903 6.34119 11.7878 6.42996 11.784 6.51873L12.739 7.2675C13.0628 7.55502 13.1453 8.01873 12.9328 8.40873L11.8153 10.3412C11.6053 10.7249 11.1428 10.9012 10.684 10.745L9.60654 10.3112C9.45027 10.415 9.29406 10.5062 9.13527 10.585L8.96904 11.7425C8.89527 12.1812 8.51781 12.5 8.07156 12.5H5.82155C5.3828 12.5 4.99655 12.1737 4.92032 11.7275L4.75532 10.575C4.59032 10.4925 4.43657 10.4037 4.29407 10.31L3.18905 10.7525C2.78405 10.8987 2.33405 10.7462 2.08403 10.355L0.95153 8.39373C0.747741 8.0175 0.83024 7.55373 1.15397 7.2675ZM3.02024 9.47373L4.15022 9.0225C4.35899 8.94 4.59524 8.97375 4.77273 9.11502C4.98647 9.28629 5.25647 9.4425 5.57646 9.58125C5.77521 9.6675 5.91519 9.85002 5.94648 10.065L6.11646 11.25H7.77771L7.94646 10.0638C7.97898 9.84 8.13021 9.65127 8.34021 9.57C8.60769 9.46752 8.87019 9.315 9.14148 9.10623C9.31773 8.97123 9.55023 8.94 9.75648 9.0225L10.8728 9.47373L11.7015 8.04123L10.7465 7.29375C10.5728 7.15752 10.484 6.94125 10.5115 6.72375C10.5314 6.56877 10.5402 6.41373 10.5402 6.25002C10.5402 6.08631 10.5315 5.93127 10.5128 5.77629C10.4853 5.55756 10.574 5.34129 10.7478 5.20629L11.7028 4.45881L10.8753 3.02631L9.75777 3.47631C9.55275 3.56004 9.31902 3.52629 9.14277 3.39258C8.91279 3.21633 8.63529 3.05631 8.31777 2.91885C8.11902 2.8326 7.97904 2.65008 7.94775 2.4351L7.77777 1.2501H6.12776L5.9565 2.43762C5.92527 2.66139 5.77398 2.85012 5.56398 2.93139C5.29649 3.03387 5.03399 3.18639 4.7627 3.39516C4.58768 3.53016 4.35518 3.56268 4.1477 3.47889L3.03143 3.02766L2.20268 4.46016L3.1577 5.20764C3.34145 5.35014 3.43022 5.58387 3.38768 5.81391C3.3602 5.95641 3.3527 6.09891 3.3527 6.25014C3.3527 6.41391 3.37397 6.56889 3.39395 6.72264C3.42143 6.94137 3.33143 7.15887 3.1577 7.29387L2.19395 8.04135L3.02024 9.47373Z" fill="#F2F2F2"/>
</g>
<defs>
<clipPath id="clip0">
<rect width="30" height="30" fill="white" transform="matrix(-1 0 0 1 30 0)"/>
</clipPath>
</defs>
</svg>
