<svg width="30" height="30" viewBox="0 0 30 30" fill="none" xmlns="http://www.w3.org/2000/svg">
<g clip-path="url(#clip0)">
<path d="M26.0482 11.1997H12.1029C11.8602 11.1997 11.6635 11.3964 11.6635 11.6391C11.6635 11.8818 11.8602 12.0786 12.1029 12.0786H26.0482C26.2909 12.0786 26.4877 11.8818 26.4877 11.6391C26.4877 11.3964 26.2909 11.1997 26.0482 11.1997Z" fill="#F2F2F2"/>
<path d="M26.0482 14.559H12.1029C11.8602 14.559 11.6635 14.7558 11.6635 14.9985C11.6635 15.2412 11.8602 15.4379 12.1029 15.4379H26.0482C26.2909 15.4379 26.4877 15.2412 26.4877 14.9985C26.4877 14.7558 26.2909 14.559 26.0482 14.559Z" fill="#F2F2F2"/>
<path d="M26.0482 17.9184H12.1029C11.8602 17.9184 11.6635 18.1151 11.6635 18.3578C11.6635 18.6005 11.8602 18.7973 12.1029 18.7973H26.0482C26.2909 18.7973 26.4877 18.6005 26.4877 18.3578C26.4877 18.1151 26.2909 17.9184 26.0482 17.9184Z" fill="#F2F2F2"/>
<path d="M27.444 7.35638H10.707C9.29762 7.35638 8.151 8.50295 8.151 9.91236V20.4368C8.151 21.8461 9.29756 22.9928 10.707 22.9928H22.4381C22.5635 22.9928 22.6801 23.0492 22.7579 23.1477L26.5463 27.9438C26.6956 28.1328 26.9134 28.2358 27.1415 28.2358C27.2263 28.2358 27.3126 28.2216 27.3972 28.1921C27.7093 28.0837 27.911 27.8002 27.911 27.4698V22.9491C29.096 22.7277 30 21.68 30 20.4368V9.9123C30 8.50295 28.8535 7.35638 27.444 7.35638ZM29.1211 20.4368C29.1211 21.3495 28.3786 22.1016 27.4658 22.1132C27.2254 22.1163 27.032 22.3121 27.032 22.5526V27.1408L23.4476 22.6029C23.2022 22.292 22.8342 22.1138 22.4381 22.1138H10.707C9.78225 22.1138 9.02991 21.3615 9.02991 20.4367V9.9123C9.02991 8.98757 9.78219 8.23523 10.707 8.23523H27.444C28.3688 8.23523 29.1211 8.98757 29.1211 9.9123V20.4368Z" fill="#F2F2F2"/>
<path d="M6.47426 14.6227C6.17367 14.6654 5.90449 14.8201 5.71629 15.0584L2.69748 18.8802V15.0499C2.69748 14.8093 2.50412 14.6135 2.26365 14.6104C1.50012 14.6007 0.878906 13.9716 0.878906 13.208V4.04619C0.878906 3.27258 1.50832 2.64317 2.28193 2.64317H16.852C17.6256 2.64317 18.2551 3.27258 18.2551 4.04619V5.74143C18.2551 5.98412 18.4518 6.18088 18.6945 6.18088C18.9372 6.18088 19.134 5.98412 19.134 5.74143V4.04619C19.134 2.78795 18.1103 1.76426 16.852 1.76426H2.28193C1.02369 1.76426 0 2.78795 0 4.04619V13.208C0 14.3017 0.783457 15.2258 1.81863 15.4418V19.3304C1.81863 19.6426 2.00918 19.9106 2.30414 20.013C2.38412 20.0408 2.46557 20.0542 2.54572 20.0542C2.76117 20.0542 2.96713 19.9569 3.10816 19.7783L6.40605 15.6032C6.45363 15.5429 6.52178 15.5037 6.59783 15.4929C6.83812 15.4588 7.00529 15.2363 6.97113 14.996C6.93703 14.7557 6.7149 14.5884 6.47426 14.6227Z" fill="#F2F2F2"/>
</g>
<defs>
<clipPath id="clip0">
<rect width="30" height="30" fill="white"/>
</clipPath>
</defs>
</svg>
