<svg width="30" height="30" viewBox="0 0 30 30" fill="none" xmlns="http://www.w3.org/2000/svg">
<path d="M21.2999 14.5C20.9 15 21 15 20.5 15.4C23.5 17.1 25.7 20.8 25.7 24.5C25.7 26.5 20.6 28.8 15 28.8C9.39995 28.8 4.39995 26.4 4.39995 24.4C4.39995 20.7 6.59995 17.2 9.59995 15.5C9.09995 15.1 9.09995 15 8.69995 14.5C5.39995 16.6 3.19995 20.3 3.19995 24.5C3.19995 25.8 3.89995 27.6 7.19995 28.8C9.29995 29.6 12 30 15 30C18 30 20.6999 29.6 22.7999 28.8C26.0999 27.6 26.7999 25.8 26.7999 24.5C26.9 20.3 24.5999 16.6 21.2999 14.5Z" fill="#F2F2F2"/>
<path d="M15 15.8C18.7 15.8 21.6 12.2 21.6 7.9C21.6 3.6 18.7 0 15 0C11.3 0 8.40002 3.6 8.40002 7.9C8.40002 12.2 11.3 15.8 15 15.8ZM15 1.3C17.6 1.3 20.4 4.6 20.4 7.9C20.4 11.2 17.6 14.5 15 14.5C12.4 14.5 9.60003 11.2 9.60003 7.9C9.60003 4.6 12.4 1.3 15 1.3Z" fill="#F2F2F2"/>
</svg>
